<svg width="24" height="24" viewBox="0 0 24 24" fill="none" xmlns="http://www.w3.org/2000/svg">
<mask id="mask0_225_156" style="mask-type:alpha" maskUnits="userSpaceOnUse" x="0" y="0" width="24" height="24">
<path fill-rule="evenodd" clip-rule="evenodd" d="M12 0C18.6274 0 24 5.37258 24 12C24 17.9894 19.6118 22.9539 13.8751 23.8542V15.4688H16.6712L17.2032 12.0001H17.2031L17.2031 12H13.8751V9.75007C13.8751 8.80108 14.3401 7.87507 15.8307 7.87507H17.3438V4.92194C17.3438 4.92194 17.3438 4.92194 17.3438 4.92193V4.92187C17.3438 4.92187 15.9701 4.6875 14.6576 4.6875C11.9166 4.6875 10.125 6.34875 10.125 9.35625V12H7.07812V15.4687H7.07819V15.4688H10.125V23.8542C4.3882 22.954 0 17.9895 0 12C0 5.37258 5.37258 0 12 0Z" fill="white"/>
</mask>
<g mask="url(#mask0_225_156)">
<rect width="24.2549" height="24.2549" fill="#1877F2"/>
</g>
</svg>
