<?xml version="1.0" standalone="no"?>
<!DOCTYPE svg PUBLIC "-//W3C//DTD SVG 20010904//EN"
 "http://www.w3.org/TR/2001/REC-SVG-20010904/DTD/svg10.dtd">
<svg version="1.0" xmlns="http://www.w3.org/2000/svg"
 width="960.000000pt" height="960.000000pt" viewBox="0 0 960.000000 960.000000"
 preserveAspectRatio="xMidYMid meet">
<metadata>
Created by potrace 1.14, written by Peter Selinger 2001-2017
</metadata>
<g transform="translate(0.000000,960.000000) scale(0.100000,-0.100000)"
fill="#000000" stroke="none">
<path d="M3510 8660 c-201 -3 -366 -7 -367 -8 -2 -1 -3 -20 -3 -41 l0 -39
-107 -6 c-60 -4 -149 -9 -200 -12 l-92 -6 -3 -41 -3 -42 -110 -6 c-60 -4 -127
-7 -147 -8 -36 -1 -37 -2 -40 -43 l-3 -43 -100 -10 -100 -10 -3 -41 -3 -41
-97 -9 -97 -9 -3 -42 c-3 -41 -3 -41 -50 -47 -153 -18 -142 -14 -142 -55 0
-47 -14 -61 -62 -61 l-38 0 -2 -57 c-1 -32 -3 -69 -4 -83 -1 -14 -3 -31 -3
-37 -1 -9 -23 -13 -74 -13 -41 0 -108 -3 -150 -6 l-76 -7 -3 -46 -3 -46 -47
-3 -48 -3 0 -38 c0 -46 -13 -58 -65 -63 l-40 -3 -3 -47 -3 -47 -47 -3 -47 -3
-5 -50 -5 -50 -42 -3 c-43 -3 -43 -3 -43 -42 0 -21 -4 -42 -10 -45 -5 -3 -10
-26 -10 -51 l0 -44 -38 0 c-49 0 -62 -14 -62 -67 l0 -43 -45 0 c-49 0 -51 -4
-57 -80 -3 -32 -6 -35 -40 -38 -40 -3 -40 -5 -54 -139 l-6 -53 -44 0 c-51 0
-53 -3 -56 -120 l-3 -75 -45 -5 -45 -5 -5 -100 -5 -100 -41 -3 -41 -3 -14
-152 -14 -152 -41 -3 -42 -3 -7 -200 -7 -199 -38 0 -37 0 -7 -62 c-11 -110
-17 -805 -9 -1033 l8 -220 38 -1 c20 -1 39 -3 41 -5 2 -2 7 -92 12 -199 l9
-195 43 -3 42 -3 1 -42 c1 -23 4 -89 8 -147 l6 -105 42 -3 c50 -4 52 -7 55
-127 l3 -80 91 -9 91 -9 7 -60 c3 -33 6 -90 6 -126 0 -36 3 -96 6 -133 l7 -67
41 -3 41 -3 5 -50 5 -50 45 -5 45 -5 7 -50 c22 -148 15 -134 62 -137 l41 -3 3
-52 3 -52 47 -3 47 -3 3 -47 3 -48 37 0 c51 0 60 -9 64 -60 l3 -45 47 -3 47
-3 3 -47 3 -47 97 -9 97 -8 3 -42 c3 -41 3 -41 48 -46 l45 -5 5 -50 5 -50 48
-3 47 -3 0 -43 c0 -49 9 -56 71 -56 l39 0 0 -44 0 -44 95 -7 95 -7 0 -38 c0
-47 13 -58 75 -62 50 -3 50 -3 53 -40 3 -41 -5 -38 184 -60 l97 -11 3 -41 3
-41 105 -5 105 -5 3 -42 3 -41 97 -6 c53 -3 140 -9 192 -14 l95 -7 3 -37 c3
-30 8 -39 25 -43 12 -2 198 -6 412 -7 l390 -3 5 45 c5 44 6 45 45 50 38 5 40
7 43 45 5 53 18 67 61 63 l36 -3 9 -97 8 -98 227 0 c124 0 256 3 294 7 l67 6
0 34 c0 18 6 36 13 38 6 3 80 8 162 13 l150 7 3 37 c4 41 -3 39 189 60 l102
10 3 42 3 41 103 9 102 8 0 43 0 42 98 9 97 9 3 42 c3 43 3 43 43 43 59 0 79
14 79 55 0 33 2 35 34 35 19 0 38 5 41 10 3 5 28 10 55 10 l49 0 3 47 3 48 50
5 50 5 5 45 5 45 47 3 47 3 3 42 c3 36 6 42 28 45 68 7 70 9 70 62 0 54 2 56
75 62 28 3 30 6 33 45 l3 42 47 3 47 3 3 48 3 47 44 0 c48 0 51 4 57 75 3 28
6 30 46 33 42 3 42 3 42 42 0 49 22 72 64 68 30 -3 31 -2 38 47 20 141 19 140
63 145 40 5 40 5 45 55 l5 50 41 3 42 3 8 97 9 97 45 5 45 5 3 80 c3 120 5
125 51 125 l38 0 6 62 c4 35 10 100 13 145 l7 82 41 3 41 3 0 105 0 105 -42 3
c-43 3 -43 3 -43 42 l0 39 48 3 47 3 5 50 5 50 41 3 41 3 7 92 c8 122 8 1079
0 1280 l-7 157 -37 0 -38 0 -7 88 c-4 48 -11 137 -14 197 l-6 110 -41 3 -41 3
-7 82 c-3 45 -9 110 -13 144 l-6 62 -35 3 c-19 2 -39 10 -43 18 -4 8 -11 54
-14 102 l-7 87 -41 3 c-41 3 -42 4 -45 43 -5 77 -9 85 -47 85 -33 0 -35 2 -35
33 0 18 -4 37 -9 43 -6 5 -11 32 -13 59 l-3 50 -46 3 -46 3 -9 92 -9 92 -40 3
c-47 4 -55 13 -55 69 l0 42 -47 3 -48 3 -3 48 -3 47 -44 0 c-48 0 -51 4 -57
75 -3 28 -7 30 -48 35 l-45 5 -5 45 -5 45 -47 3 -47 3 -3 47 -3 47 -47 3 -47
3 -3 47 -3 47 -50 5 -50 5 -5 45 -5 45 -92 8 -92 9 -3 41 -3 42 -50 5 -50 5
-5 45 -5 45 -97 9 -98 8 0 43 0 42 -97 9 -98 9 -3 41 -3 42 -102 8 -102 9 -3
41 -3 41 -77 7 c-42 3 -107 9 -144 12 l-68 7 0 33 c0 23 -6 37 -19 44 -11 5
-77 10 -148 11 -70 1 -153 4 -183 7 -55 7 -55 7 -58 44 -3 30 -8 39 -25 43
-37 8 -564 10 -947 5z m40 -149 c0 -59 -8 -71 -45 -71 -37 0 -45 12 -45 71 l0
39 45 0 45 0 0 -39z m-1122 -670 c9 -5 12 -24 10 -52 l-3 -44 -94 -3 c-102 -3
-111 1 -111 50 0 55 5 58 99 58 47 0 92 -4 99 -9z m2420 -103 l122 -11 0 -33
0 -32 -92 -7 c-51 -4 -99 -12 -105 -17 -7 -6 -13 -26 -13 -44 0 -33 -1 -34
-39 -34 -39 0 -40 1 -43 38 -3 37 -3 37 -50 40 l-48 3 0 49 0 49 43 4 c85 7
104 7 225 -5z m-3123 -198 l0 -95 -44 -3 c-24 -2 -48 1 -53 6 -6 6 -7 47 -3
101 l8 92 46 -3 46 -3 0 -95z m3665 55 l0 -45 -55 0 -55 0 0 38 c0 21 3 42 7
45 3 4 28 7 55 7 l48 0 0 -45z m394 -146 c4 -44 4 -84 1 -90 -4 -5 -24 -9 -46
-9 l-39 0 0 90 0 90 39 0 38 0 7 -81z m-1924 -464 l0 -56 -97 3 -98 3 -3 39
c-5 64 -3 66 103 66 l95 0 0 -55z m2830 0 c0 -33 -2 -35 -35 -35 -33 0 -35 2
-35 35 0 33 2 35 35 35 33 0 35 -2 35 -35z m-1320 -155 l0 -90 -34 0 c-19 0
-37 4 -41 9 -3 6 -3 46 1 90 l7 81 33 0 34 0 0 -90z m-1710 -155 l5 -50 43 -3
42 -3 0 -94 0 -93 -89 -7 c-49 -4 -94 -4 -100 0 -6 3 -11 26 -11 50 l0 44 -47
3 -48 3 -3 89 c-2 49 0 96 2 103 4 11 28 13 103 11 l98 -3 5 -50z m-1420 23
c0 -13 -3 -53 -7 -90 l-6 -68 -43 0 -44 0 0 90 0 90 50 0 c45 0 50 -2 50 -22z
m2330 -223 l0 -45 -45 0 -45 0 0 45 0 45 45 0 45 0 0 -45z m-2022 -102 l3 -43
44 0 c52 0 54 -3 57 -125 l3 -80 45 -5 45 -5 -3 -85 c-1 -47 -4 -91 -7 -97 -6
-17 -77 -17 -93 -1 -7 7 -12 27 -12 45 0 32 -1 33 -39 33 -40 0 -40 0 -43 -42
l-3 -43 -55 0 -55 0 -5 55 c-5 53 -6 55 -37 58 l-31 3 -8 77 c-4 42 -8 106 -8
142 l-1 65 40 5 c39 5 40 6 43 48 l3 43 57 -3 57 -3 3 -42z m2427 -63 c4 -6 4
-49 0 -95 l-7 -85 -44 0 -44 0 0 95 0 95 44 0 c25 0 48 -5 51 -10z m403 -132
l3 -48 -45 0 -46 0 0 43 c0 53 5 59 50 55 34 -3 35 -4 38 -50z m-4160 13 c2
-12 1 -34 -2 -48 -6 -22 -11 -24 -54 -21 l-47 3 -3 48 -3 48 53 -3 c47 -3 53
-6 56 -27z m-563 -77 c45 -6 45 -6 45 -45 0 -39 0 -39 -39 -39 -44 0 -51 -10
-51 -71 l0 -40 -97 3 -98 3 0 50 0 50 43 3 42 3 0 44 c0 25 5 46 13 49 12 5
47 3 142 -10z m159 -100 c20 -8 22 -77 2 -93 -8 -7 -34 -11 -58 -9 l-43 3 -3
53 -3 52 45 0 c24 0 51 -3 60 -6z m4156 -54 l0 -50 -39 0 c-42 0 -51 11 -51
59 0 36 6 41 52 41 l38 0 0 -50z m2024 -36 c12 -4 16 -20 16 -55 0 -44 -3 -49
-25 -55 -14 -3 -38 -3 -53 1 -15 4 -46 9 -69 12 -42 5 -43 6 -43 44 0 38 1 39
38 39 20 0 44 5 52 10 17 11 61 13 84 4z m-4874 -59 c0 -34 -1 -35 -40 -35
-39 0 -40 1 -40 35 0 34 1 35 40 35 39 0 40 -1 40 -35z m3660 0 c0 -34 -1 -35
-40 -35 -39 0 -40 1 -40 35 0 34 1 35 40 35 39 0 40 -1 40 -35z m-377 -151
l75 -7 7 -91 c9 -123 10 -126 49 -126 42 0 54 14 58 70 l3 45 45 0 45 0 3 -40
c2 -22 1 -86 -3 -142 l-7 -103 -37 0 c-47 0 -61 -14 -61 -62 0 -37 -1 -38 -39
-38 l-38 0 -7 61 c-3 34 -6 77 -6 95 l0 34 -145 0 c-125 0 -146 2 -152 16 -3
9 -7 76 -7 148 l-1 131 45 6 c69 9 91 10 173 3z m-4693 -48 c0 -25 -5 -48 -10
-51 -6 -4 -49 -4 -95 0 l-85 7 0 39 c0 37 1 38 43 42 23 2 66 4 95 5 l52 2 0
-44z m3154 -3 c3 -27 8 -69 12 -94 4 -34 2 -48 -10 -58 -10 -8 -16 -29 -16
-52 0 -39 0 -39 -40 -39 -40 0 -40 0 -40 39 0 44 -10 51 -71 51 l-39 0 0 55 0
55 45 0 45 0 0 38 c0 21 3 42 7 45 3 4 28 7 54 7 l47 0 6 -47z m-2036 -88 c6
-70 10 -75 53 -75 l40 0 -3 -42 c-3 -42 -4 -43 -43 -48 -39 -5 -40 -6 -43 -47
-3 -46 -22 -59 -73 -51 -21 3 -25 10 -29 53 l-5 50 -42 3 c-43 3 -43 3 -43 43
0 38 1 39 33 39 44 0 57 15 57 68 l0 43 48 -3 c44 -3 47 -5 50 -33z m4970
-112 l3 -43 -45 0 -46 0 0 38 c0 48 6 54 50 50 34 -3 35 -5 38 -45z m-5288 -2
c0 -49 21 -71 66 -71 32 0 34 -2 34 -34 0 -33 -1 -33 -52 -40 -29 -3 -70 -6
-90 -6 l-38 0 0 95 0 95 40 0 c40 0 40 0 40 -39z m2650 -96 l0 -45 -45 0 -45
0 0 38 c0 48 4 52 52 52 l38 0 0 -45z m-1630 -10 l0 -45 -45 0 -45 0 0 45 0
45 45 0 45 0 0 -45z m310 -45 l0 -90 -39 0 -38 0 -7 53 c-3 28 -6 69 -6 90 l0
37 45 0 45 0 0 -90z m-410 -55 c0 -34 -1 -35 -40 -35 -39 0 -40 1 -40 35 0 34
1 35 40 35 39 0 40 -1 40 -35z m625 -45 c3 -5 24 -10 46 -10 l40 0 -3 -47 c-3
-48 -3 -48 -43 -53 -39 -5 -40 -6 -43 -47 l-3 -43 -50 0 -49 0 0 105 0 105 49
0 c28 0 53 -4 56 -10z m-1430 -110 l10 -105 43 -3 c42 -3 42 -4 42 -41 l0 -38
-61 -7 c-34 -3 -79 -6 -100 -6 l-38 0 -3 48 -3 47 -42 3 -41 3 -7 94 c-4 51
-4 98 0 105 4 7 38 10 98 8 l92 -3 10 -105z m5675 55 c0 -33 -2 -35 -35 -35
-33 0 -35 2 -35 35 0 33 2 35 35 35 33 0 35 -2 35 -35z m-3032 -102 l3 -53 45
0 44 0 0 -45 0 -46 -92 3 -93 3 -3 84 c-4 109 -2 113 50 109 l43 -3 3 -52z
m2020 38 c8 -5 12 -22 10 -42 -3 -32 -5 -34 -45 -37 l-43 -3 0 39 c0 21 3 42
7 45 9 10 55 8 71 -2z m257 -97 c45 -6 45 -6 45 -45 0 -37 -1 -39 -33 -39 -43
0 -57 -15 -57 -62 l0 -38 -50 0 -50 0 0 93 c0 52 3 97 7 101 5 4 27 5 50 2 24
-3 63 -9 88 -12z m-5837 -44 c4 -52 13 -60 65 -60 l38 0 -3 -42 c-3 -42 -4
-43 -43 -46 -46 -4 -55 -14 -55 -60 l0 -33 -47 3 -48 3 -7 50 c-12 90 -9 223
5 229 6 3 30 4 52 3 40 -2 40 -2 43 -47z m3352 -306 l0 -45 -47 3 -48 3 -3 43
-3 42 50 0 51 0 0 -46z m-922 -52 c9 -6 12 -35 10 -108 l-3 -99 -42 -3 c-42
-3 -42 -3 -45 -45 l-3 -42 -55 -5 -55 -5 -3 -41 -3 -41 -67 -7 c-37 -3 -104
-6 -149 -6 l-83 0 0 49 0 50 48 3 47 3 3 45 c4 56 16 70 57 70 l33 0 8 90 7
89 51 4 c104 7 231 6 244 -1z m-1918 -29 c0 -16 -3 -59 -7 -96 l-6 -68 -41 3
-41 3 -3 93 -3 92 51 0 c48 0 50 -1 50 -27z m-412 -107 c2 -15 1 -39 -3 -53
-5 -21 -11 -24 -43 -21 l-37 3 -3 53 -3 53 43 -3 c39 -3 43 -6 46 -32z m4128
24 c21 0 24 -5 24 -35 0 -33 -2 -35 -34 -35 l-33 0 -7 -100 c-4 -55 -5 -104
-1 -110 3 -5 25 -10 49 -10 l42 0 2 -200 1 -200 -94 0 -95 0 0 49 0 50 38 3
c36 3 37 4 37 43 0 40 0 40 -42 43 l-41 3 -6 102 c-12 204 -9 339 10 396 3 11
18 12 66 7 33 -3 72 -6 84 -6z m1052 -132 l3 -48 -45 0 -46 0 0 43 c0 53 5 59
50 55 34 -3 35 -4 38 -50z m-1838 -3 c0 -33 -2 -35 -35 -35 -33 0 -35 2 -35
35 0 33 2 35 35 35 33 0 35 -2 35 -35z m2454 -167 c17 -64 1 -98 -45 -98 -50
0 -59 9 -59 59 0 26 3 51 7 54 3 4 25 7 49 7 35 0 43 -4 48 -22z m-4586 -136
l3 -42 -40 0 c-41 0 -41 0 -41 38 0 47 0 47 42 46 31 -1 33 -3 36 -42z m7
-257 l0 -90 -41 -3 -41 -3 -6 53 c-9 70 -9 123 0 132 4 4 25 6 48 4 l40 -3 0
-90z m819 -162 c16 -136 14 -133 56 -133 31 0 39 -4 44 -22 17 -64 1 -98 -45
-98 -50 0 -59 9 -59 56 l0 44 -44 0 c-55 0 -60 11 -50 120 l7 80 42 0 43 0 6
-47z m1318 -90 l3 -48 100 -5 100 -5 3 -46 3 -46 76 -7 c42 -3 109 -6 150 -6
l74 0 -3 -92 -3 -93 -29 -3 c-15 -2 -39 -1 -52 2 -20 5 -24 13 -24 46 0 37 -2
40 -27 41 -16 0 -122 3 -237 5 -135 2 -214 8 -222 15 -8 6 -14 27 -14 45 0 33
-1 34 -44 34 -31 0 -46 5 -50 16 -8 21 -8 179 1 187 3 4 48 7 99 7 l93 0 3
-47z m1827 -57 c7 -8 11 -32 9 -53 l-3 -38 -100 0 -100 0 -3 47 -3 47 53 4
c117 8 136 7 147 -7z m-3764 -51 c0 -49 0 -50 -33 -53 -44 -4 -62 12 -62 58 0
47 5 52 55 48 l40 -3 0 -50z m2950 5 l0 -45 -95 0 -95 0 0 40 c0 40 0 40 45
46 25 4 68 6 95 5 l50 -1 0 -45z m-1625 -210 c0 -57 5 -55 -122 -43 l-68 6 0
43 0 44 95 0 95 0 0 -50z m-712 -92 l3 -48 -95 0 -96 0 0 43 c0 24 3 47 7 51
4 4 46 5 93 4 l85 -3 3 -47z m-410 -105 l-3 -48 -40 0 c-38 0 -40 2 -43 33 -5
52 3 62 48 62 l41 0 -3 -47z m4062 -253 l0 -90 -40 0 -40 0 0 90 0 90 40 0 40
0 0 -90z m-1830 44 l0 -35 -42 3 c-40 3 -43 5 -46 36 -3 32 -3 32 42 32 46 0
46 0 46 -36z m1425 -199 l0 -40 -45 0 c-42 0 -45 2 -48 28 -6 49 3 58 50 55
43 -3 43 -3 43 -43z m-407 -203 l3 -43 -43 3 c-41 3 -43 5 -46 37 -4 39 10 52
53 49 28 -3 30 -6 33 -46z"/>
</g>
</svg>
